<svg xmlns="http://www.w3.org/2000/svg" viewBox="0 0 512 512" width="512" height="512">
  <defs>
    <linearGradient id="bg" x1="0%" y1="0%" x2="100%" y2="100%">
      <stop offset="0%" style="stop-color:#1a1a2e"/>
      <stop offset="100%" style="stop-color:#16213e"/>
    </linearGradient>
    <linearGradient id="anvil" x1="0%" y1="0%" x2="0%" y2="100%">
      <stop offset="0%" style="stop-color:#8a8a8a"/>
      <stop offset="100%" style="stop-color:#4a4a4a"/>
    </linearGradient>
  </defs>
  <!-- Full background (no rounded corners for maskable) -->
  <rect width="512" height="512" fill="url(#bg)"/>
  <!-- Anvil body (centered in safe zone ~80% = 410px area, offset ~51px) -->
  <path d="M136 310 L166 235 L346 235 L376 310 Z" fill="url(#anvil)" stroke="#666" stroke-width="4"/>
  <!-- Anvil top -->
  <path d="M95 235 Q95 190 150 190 L362 190 Q417 190 417 235 Z" fill="#6a6a6a" stroke="#555" stroke-width="4"/>
  <!-- Anvil base -->
  <rect x="160" y="310" width="192" height="28" rx="6" fill="#3a3a3a" stroke="#555" stroke-width="3"/>
  <rect x="146" y="338" width="220" height="24" rx="8" fill="#2a2a2a" stroke="#444" stroke-width="3"/>
  <!-- Hammer -->
  <rect x="244" y="80" width="18" height="100" rx="4" fill="#8B6914" stroke="#6B4914" stroke-width="2"/>
  <rect x="208" y="62" width="90" height="36" rx="7" fill="#777" stroke="#555" stroke-width="3"/>
  <!-- Sparks -->
  <circle cx="196" cy="178" r="7" fill="#ffcc00" opacity="0.9"/>
  <circle cx="300" cy="168" r="6" fill="#ff8800" opacity="0.8"/>
  <circle cx="250" cy="158" r="5" fill="#ffdd44" opacity="0.9"/>
  <circle cx="320" cy="176" r="5" fill="#ffaa00" opacity="0.7"/>
  <circle cx="216" cy="154" r="3.5" fill="#ffee66" opacity="0.8"/>
  <!-- Text -->
  <text x="256" y="415" font-family="Arial,Helvetica,sans-serif" font-size="40" font-weight="bold" fill="#f0a030" text-anchor="middle" letter-spacing="2">ANVIL LEGENDS</text>
</svg>
