<svg xmlns="http://www.w3.org/2000/svg" viewBox="0 0 512 512" width="512" height="512">
  <defs>
    <linearGradient id="bg" x1="0%" y1="0%" x2="100%" y2="100%">
      <stop offset="0%" style="stop-color:#1a1a2e"/>
      <stop offset="100%" style="stop-color:#16213e"/>
    </linearGradient>
    <linearGradient id="anvil" x1="0%" y1="0%" x2="0%" y2="100%">
      <stop offset="0%" style="stop-color:#8a8a8a"/>
      <stop offset="100%" style="stop-color:#4a4a4a"/>
    </linearGradient>
  </defs>
  <!-- Background -->
  <rect width="512" height="512" rx="80" fill="url(#bg)"/>
  <!-- Anvil body -->
  <path d="M116 320 L146 240 L366 240 L396 320 Z" fill="url(#anvil)" stroke="#666" stroke-width="4"/>
  <!-- Anvil top -->
  <path d="M70 240 Q70 192 130 192 L382 192 Q442 192 442 240 Z" fill="#6a6a6a" stroke="#555" stroke-width="4"/>
  <!-- Anvil base -->
  <rect x="146" y="320" width="220" height="32" rx="6" fill="#3a3a3a" stroke="#555" stroke-width="3"/>
  <rect x="130" y="352" width="252" height="28" rx="8" fill="#2a2a2a" stroke="#444" stroke-width="3"/>
  <!-- Hammer -->
  <rect x="232" y="68" width="20" height="110" rx="5" fill="#8B6914" stroke="#6B4914" stroke-width="2"/>
  <rect x="192" y="48" width="100" height="40" rx="8" fill="#777" stroke="#555" stroke-width="3"/>
  <!-- Sparks -->
  <circle cx="186" cy="180" r="8" fill="#ffcc00" opacity="0.9"/>
  <circle cx="296" cy="168" r="7" fill="#ff8800" opacity="0.8"/>
  <circle cx="240" cy="160" r="5.5" fill="#ffdd44" opacity="0.9"/>
  <circle cx="326" cy="178" r="5.5" fill="#ffaa00" opacity="0.7"/>
  <circle cx="206" cy="156" r="4" fill="#ffee66" opacity="0.8"/>
  <circle cx="160" cy="170" r="3.5" fill="#ff9922" opacity="0.7"/>
  <circle cx="340" cy="164" r="3" fill="#ffcc44" opacity="0.8"/>
  <!-- Text -->
  <text x="256" y="440" font-family="Arial,Helvetica,sans-serif" font-size="48" font-weight="bold" fill="#f0a030" text-anchor="middle" letter-spacing="3">ANVIL LEGENDS</text>
</svg>
